<?xml version="1.0" encoding="utf-8"?>
<!-- Generator: Adobe Illustrator 26.3.1, SVG Export Plug-In . SVG Version: 6.00 Build 0)  -->
<svg version="1.1" id="Calque_1" xmlns="http://www.w3.org/2000/svg" xmlns:xlink="http://www.w3.org/1999/xlink" x="0px" y="0px"
	 viewBox="0 0 500 300" style="enable-background:new 0 0 500 300;" xml:space="preserve">
<style type="text/css">
	.st0{fill:#EE0914;}
</style>
<g>
	<g>
		<path class="st0" d="M26.5,72.7c9.4,0,14,0,23.4,0c6,22.8,12,45.5,18.1,68.2c0.1,0,0.2,0,0.3,0c0-22.7,0-45.5,0.1-68.2
			c6.6,0,10,0,16.6,0c0,37.5-0.1,74.9-0.1,112.4c-7.7,0.7-11.5,1.1-19.1,1.9c-7.5-27.6-15-55.1-22.3-82.7c-0.1,0-0.2,0-0.3,0
			c0,28.4,0,56.8,0,85.2c-6.6,0.8-9.9,1.2-16.6,2C26.5,151.9,26.5,112.3,26.5,72.7z"/>
		<path class="st0" d="M105.2,177.8c-4.7-4.4-7.1-11.2-7.1-20.2c0-28.3,0.1-56.6,0.1-84.8c7.5,0,11.2,0,18.7,0
			c0,28.3-0.1,56.7-0.1,85c0,3.8,0.8,6.4,2.4,8c1.6,1.6,4,2.3,7,2.1c3.1-0.2,5.4-1.1,7-2.9c1.6-1.7,2.5-4.5,2.5-8.2
			c0-28,0.1-56,0.1-84c7.2,0,10.8,0,18,0c0,27.3-0.1,54.6-0.1,81.9c0,8.7-2.4,15.5-7.2,20.4c-4.8,4.9-11.7,7.7-20.7,8.3
			C116.8,184,109.9,182.2,105.2,177.8z"/>
		<path class="st0" d="M181.6,87.9c-7.8,0-11.7,0.1-19.5,0.1c0-6.1,0-9.2,0-15.3c19.2,0,38.4,0,57.7,0c0,6,0,9,0,15
			c-7.8,0-11.7,0-19.5,0.1c0,30.1-0.1,60.3-0.1,90.4c-7.5,0.2-11.2,0.3-18.7,0.6C181.6,148.5,181.6,118.2,181.6,87.9z"/>
		<path class="st0" d="M228.8,72.7c16.4,0,32.9,0,49.3,0c0,6,0,9,0,15c-10.2,0-20.5,0-30.7,0c0,9.7,0,19.5,0,29.2
			c9.6,0,14.5,0,24.1,0.1c0,6,0,9,0,15c-9.6-0.1-14.5-0.1-24.1-0.1c0,15.2,0,30.5,0,45.7c-7.5,0-11.2,0-18.7,0.1
			C228.8,142.7,228.8,107.7,228.8,72.7z"/>
		<path class="st0" d="M287.1,72.7c7.5,0,11.2,0,18.7,0c0,30.2,0.1,60.4,0.1,90.6c10.2,0.3,20.5,0.6,30.7,1c0,6.1,0,9.2,0,15.3
			c-16.5-0.8-32.9-1.4-49.4-1.7C287.2,142.9,287.2,107.8,287.1,72.7z"/>
		<path class="st0" d="M352.1,175c-4.8-4.9-7.1-11.7-7.2-20.4c0-27.3-0.1-54.6-0.1-81.9c7.5,0,11.2,0,18.7,0c0,28,0.1,56,0.1,83.9
			c0,3.7,0.8,6.4,2.5,8.2c1.6,1.7,4,2.7,7,2.9c3.1,0.2,5.4-0.5,7-2.1c1.6-1.6,2.5-4.2,2.4-8c0-28.3-0.1-56.6-0.1-84.9
			c7.2,0,10.8,0,18,0c0,28.3,0.1,56.5,0.1,84.8c0,9-2.3,15.7-7.1,20.2c-4.7,4.4-11.6,6.3-20.7,5.6
			C363.7,182.7,356.8,179.9,352.1,175z"/>
		<path class="st0" d="M430,128.3c-6.7-18.6-13.6-37.1-20.6-55.6c7.9,0,11.8,0,19.7,0c4.2,12.4,8.4,24.7,12.6,37.1
			c0.1,0,0.2,0,0.3,0c4.3-12.4,8.6-24.7,12.9-37.1c7.1,0,10.6,0,17.6,0c-6.7,18.9-13.5,37.9-20.5,56.7c7.3,20.6,14.5,41.3,21.5,61.9
			c-7.8-1-11.8-1.4-19.6-2.3c-4.5-13.9-9-27.7-13.6-41.5c-0.1,0-0.2,0-0.3,0c-4.6,12.9-9.2,25.8-13.8,38.6c-7-0.7-10.6-1-17.6-1.6
			C415.8,165.8,422.9,147.1,430,128.3z"/>
	</g>
</g>
<g>
	<path class="st0" d="M179.3,206.1h6.9l5.3,32.6h-5.1l-0.9-6.5v0.1h-5.8l-0.9,6.4H174L179.3,206.1z M184.9,227.9l-2.3-16.1h-0.1
		l-2.2,16.1H184.9z"/>
	<path class="st0" d="M194,206.1h6.4l5,19.5h0.1v-19.5h4.6v32.6h-5.3l-6.2-23.8h-0.1v23.8H194V206.1z"/>
	<path class="st0" d="M213.9,206.1h7.8c2.5,0,4.5,0.7,5.7,2.1c1.3,1.4,1.9,3.4,1.9,6v16.5c0,2.6-0.6,4.6-1.9,6c-1.3,1.4-3.2,2-5.7,2
		h-7.8V206.1z M221.6,234c0.8,0,1.5-0.2,1.9-0.7c0.4-0.5,0.7-1.3,0.7-2.4v-17c0-1.1-0.2-1.9-0.7-2.4c-0.5-0.5-1.1-0.7-1.9-0.7H219
		V234H221.6z"/>
	<path class="st0" d="M241.9,237c-1.3-1.4-1.9-3.4-1.9-5.9v-17.5c0-2.5,0.6-4.5,1.9-5.9c1.3-1.4,3.2-2.1,5.6-2.1
		c2.5,0,4.3,0.7,5.6,2.1c1.3,1.4,1.9,3.4,1.9,5.9v3.4h-4.8v-3.8c0-2-0.9-3-2.6-3c-1.7,0-2.6,1-2.6,3v18.2c0,2,0.9,3,2.6,3
		c1.7,0,2.6-1,2.6-3v-5h4.8v4.6c0,2.5-0.6,4.5-1.9,5.9s-3.2,2.1-5.6,2.1C245.1,239.1,243.2,238.4,241.9,237z"/>
	<path class="st0" d="M258.1,206.1h5.1v13.3h5.5v-13.3h5.1v32.6h-5.1V224h-5.5v14.7h-5.1V206.1z"/>
	<path class="st0" d="M279.5,237c-1.3-1.4-2-3.4-2-6.1v-24.9h5.1v25.3c0,1.1,0.2,1.9,0.7,2.4c0.5,0.5,1.1,0.7,1.9,0.7
		s1.5-0.2,1.9-0.7c0.5-0.5,0.7-1.3,0.7-2.4v-25.3h4.9v24.9c0,2.6-0.7,4.7-2,6.1c-1.3,1.4-3.2,2.1-5.7,2.1S280.8,238.4,279.5,237z"/>
	<path class="st0" d="M296.4,206.1h5.1v28h8.4v4.7h-13.6V206.1z"/>
	<path class="st0" d="M312.5,206.1h5.1v28h8.4v4.7h-13.6V206.1z"/>
</g>
</svg>
