<?xml version="1.0" encoding="utf-8"?>
<!-- Generator: Adobe Illustrator 26.3.1, SVG Export Plug-In . SVG Version: 6.00 Build 0)  -->
<svg version="1.1" id="Calque_1" xmlns="http://www.w3.org/2000/svg" xmlns:xlink="http://www.w3.org/1999/xlink" x="0px" y="0px"
	 viewBox="0 0 447 166.2" style="enable-background:new 0 0 447 166.2;" xml:space="preserve">
<style type="text/css">
	.st0{fill:#EE0914;}
</style>
<g>
	<g>
		<path class="st0" d="M0,0c9.4,0,14,0,23.4,0c6,22.8,12,45.5,18.1,68.2c0.1,0,0.2,0,0.3,0c0-22.7,0-45.5,0.1-68.2
			c6.6,0,10,0,16.6,0c0,37.5-0.1,74.9-0.1,112.4c-7.7,0.7-11.5,1.1-19.1,1.9c-7.5-27.6-15-55.1-22.3-82.7c-0.1,0-0.2,0-0.3,0
			c0,28.4,0,56.8,0,85.2c-6.6,0.8-9.9,1.2-16.6,2C0,79.2,0,39.6,0,0z"/>
		<path class="st0" d="M78.7,105.1c-4.7-4.4-7.1-11.2-7.1-20.2c0-28.3,0.1-56.6,0.1-84.8c7.5,0,11.2,0,18.7,0
			c0,28.3-0.1,56.7-0.1,85c0,3.8,0.8,6.4,2.4,8s4,2.3,7,2.1c3.1-0.2,5.4-1.1,7-2.9c1.6-1.7,2.5-4.5,2.5-8.2c0-28,0.1-56,0.1-84
			c7.2,0,10.8,0,18,0c0,27.3-0.1,54.6-0.1,81.9c0,8.7-2.4,15.5-7.2,20.4s-11.7,7.7-20.7,8.3C90.3,111.3,83.4,109.5,78.7,105.1z"/>
		<path class="st0" d="M155.1,15.2c-7.8,0-11.7,0.1-19.5,0.1c0-6.1,0-9.2,0-15.3c19.2,0,38.4,0,57.7,0c0,6,0,9,0,15
			c-7.8,0-11.7,0-19.5,0.1c0,30.1-0.1,60.3-0.1,90.4c-7.5,0.2-11.2,0.3-18.7,0.6C155.1,75.8,155.1,45.5,155.1,15.2z"/>
		<path class="st0" d="M202.3,0c16.4,0,32.9,0,49.3,0c0,6,0,9,0,15c-10.2,0-20.5,0-30.7,0c0,9.7,0,19.5,0,29.2
			c9.6,0,14.5,0,24.1,0.1c0,6,0,9,0,15c-9.6-0.1-14.5-0.1-24.1-0.1c0,15.2,0,30.5,0,45.7c-7.5,0-11.2,0-18.7,0.1
			C202.3,70,202.3,35,202.3,0z"/>
		<path class="st0" d="M260.6,0c7.5,0,11.2,0,18.7,0c0,30.2,0.1,60.4,0.1,90.6c10.2,0.3,20.5,0.6,30.7,1c0,6.1,0,9.2,0,15.3
			c-16.5-0.8-32.9-1.4-49.4-1.7C260.7,70.2,260.7,35.1,260.6,0z"/>
		<path class="st0" d="M325.6,102.3c-4.8-4.9-7.1-11.7-7.2-20.4c0-27.3-0.1-54.6-0.1-81.9c7.5,0,11.2,0,18.7,0c0,28,0.1,56,0.1,83.9
			c0,3.7,0.8,6.4,2.5,8.2c1.6,1.7,4,2.7,7,2.9c3.1,0.2,5.4-0.5,7-2.1s2.5-4.2,2.4-8c0-28.3-0.1-56.6-0.1-84.9c7.2,0,10.8,0,18,0
			c0,28.3,0.1,56.5,0.1,84.8c0,9-2.3,15.7-7.1,20.2c-4.7,4.4-11.6,6.3-20.7,5.6C337.2,110,330.3,107.2,325.6,102.3z"/>
		<path class="st0" d="M403.5,55.6C396.8,37,389.9,18.5,382.9,0c7.9,0,11.8,0,19.7,0c4.2,12.4,8.4,24.7,12.6,37.1c0.1,0,0.2,0,0.3,0
			c4.3-12.4,8.6-24.7,12.9-37.1c7.1,0,10.6,0,17.6,0c-6.7,18.9-13.5,37.9-20.5,56.7C432.8,77.3,440,98,447,118.6
			c-7.8-1-11.8-1.4-19.6-2.3c-4.5-13.9-9-27.7-13.6-41.5c-0.1,0-0.2,0-0.3,0c-4.6,12.9-9.2,25.8-13.8,38.6c-7-0.7-10.6-1-17.6-1.6
			C389.3,93.1,396.4,74.4,403.5,55.6z"/>
	</g>
</g>
<g>
	<path class="st0" d="M152.8,133.3h6.9l5.3,32.6h-5.1l-0.9-6.5v0.1h-5.8l-0.9,6.4h-4.8L152.8,133.3z M158.4,155.1l-2.3-16.1H156
		l-2.2,16.1H158.4z"/>
	<path class="st0" d="M167.5,133.3h6.4l5,19.5h0.1v-19.5h4.6v32.6h-5.3l-6.2-23.8H172v23.8h-4.5V133.3z"/>
	<path class="st0" d="M187.4,133.3h7.8c2.5,0,4.5,0.7,5.7,2.1c1.3,1.4,1.9,3.4,1.9,6v16.5c0,2.6-0.6,4.6-1.9,6c-1.3,1.4-3.2,2-5.7,2
		h-7.8V133.3z M195.1,161.2c0.8,0,1.5-0.2,1.9-0.7s0.7-1.3,0.7-2.4v-17c0-1.1-0.2-1.9-0.7-2.4s-1.1-0.7-1.9-0.7h-2.6v23.2H195.1z"/>
	<path class="st0" d="M215.4,164.2c-1.3-1.4-1.9-3.4-1.9-5.9v-17.5c0-2.5,0.6-4.5,1.9-5.9c1.3-1.4,3.2-2.1,5.6-2.1
		c2.5,0,4.3,0.7,5.6,2.1c1.3,1.4,1.9,3.4,1.9,5.9v3.4h-4.8v-3.8c0-2-0.9-3-2.6-3c-1.7,0-2.6,1-2.6,3v18.2c0,2,0.9,3,2.6,3
		c1.7,0,2.6-1,2.6-3v-5h4.8v4.6c0,2.5-0.6,4.5-1.9,5.9s-3.2,2.1-5.6,2.1C218.6,166.3,216.7,165.6,215.4,164.2z"/>
	<path class="st0" d="M231.6,133.3h5.1v13.3h5.5v-13.3h5.1v32.6h-5.1v-14.7h-5.5v14.7h-5.1V133.3z"/>
	<path class="st0" d="M253,164.2c-1.3-1.4-2-3.4-2-6.1v-24.9h5.1v25.3c0,1.1,0.2,1.9,0.7,2.4s1.1,0.7,1.9,0.7s1.5-0.2,1.9-0.7
		c0.5-0.5,0.7-1.3,0.7-2.4v-25.3h4.9v24.9c0,2.6-0.7,4.7-2,6.1c-1.3,1.4-3.2,2.1-5.7,2.1S254.3,165.6,253,164.2z"/>
	<path class="st0" d="M269.9,133.3h5.1v28h8.4v4.7h-13.6v-32.7H269.9z"/>
	<path class="st0" d="M286,133.3h5.1v28h8.4v4.7h-13.6v-32.7H286z"/>
</g>
</svg>
