<?xml version="1.0" encoding="utf-8"?>
<!-- Generator: Adobe Illustrator 26.3.1, SVG Export Plug-In . SVG Version: 6.00 Build 0)  -->
<svg version="1.1" id="Calque_1" xmlns="http://www.w3.org/2000/svg" xmlns:xlink="http://www.w3.org/1999/xlink" x="0px" y="0px"
	 viewBox="0 0 100 100" style="enable-background:new 0 0 100 100;" xml:space="preserve">
<style type="text/css">
	.st0{fill:#545454;}
</style>
<g>
	<path class="st0" d="M59.3,73.6c2.7-0.6,5.2-1.1,7.7-1.8c8.3-2.5,12.9-8.2,14.3-16.6c0.7-4.2,0.9-8.5-0.3-12.7
		c-0.7-2.4-1.9-4.6-3.5-6.5c-0.5-0.6-0.6-1-0.4-1.8c1.2-3.9,0.8-7.8-0.6-11.6c-0.1-0.4-0.8-0.9-1.2-0.8c-1.7,0.2-3.4,0.4-4.9,1
		c-2.4,1-4.7,2.4-7,3.6c-0.5,0.3-1.2,0.4-1.7,0.3c-7.7-1.8-15.3-1.8-23,0c-0.6,0.1-1.3,0-1.8-0.3c-3.3-2-6.7-4-10.6-4.6
		c-2.1-0.3-2.3-0.2-2.9,1.8c-1,3.6-1.2,7.2-0.1,10.9c0.1,0.3,0,0.9-0.2,1.2c-4.5,5.3-5.2,11.5-4.4,18.1c0.6,4.2,1.8,8.2,4.5,11.6
		c3.4,4.3,8.1,6.3,13.3,7.4c1.4,0.3,2.9,0.5,4.5,0.8c-1.7,1.8-2.5,3.9-2.9,6.1c-0.1,0.3-0.5,0.7-0.8,0.9c-5.5,2.4-10.5,0.8-13.7-4.4
		c-1.7-2.7-3.8-4.6-7-5.2c-0.6-0.1-1.3-0.1-1.9,0.1c-1.3,0.3-1.4,0.9-0.5,1.9c0.3,0.3,0.7,0.7,1.1,0.9c2.5,1.5,4.3,3.6,5.2,6.3
		c1.9,5.8,7.6,8.3,13.7,7.7c1.2-0.1,2.3-0.3,3.7-0.4c0,3.3,0.1,6.4,0,9.6c-0.1,1.8-1.7,2.6-3.7,1.9c-4.3-1.5-8.4-3.5-12.1-6.1
		C7,81.9-0.3,67.4,0.2,49.2c0.6-23.4,18-43.3,41-47.4C68-3,93.8,14.8,98.9,41.7c4.7,24.5-9.1,48.7-32.4,56.9c-2.8,1-4.2,0-4.1-3
		c0-4.2,0-8.3,0.1-12.5C62.4,79.6,61.9,76.3,59.3,73.6z"/>
</g>
</svg>
